[Header]
FileType HTR
DataType HTRS
FileVersion 1
NumSegments 64
NumFrames 4
DataFrameRate 30
EulerRotationOrder ZYX
CalibrationUnits mm
RotationUnits Degrees
GlobalAxisofGravity Y
BoneLengthAxis Y
ScaleFactor 1.0
[SegmentNames&Hierarchy]
Hips	GLOBAL
Spine	Hips
Spine1	Spine
Spine2	Spine1
Neck	Spine2
Head	Neck
LeftEye	Head
RightEye	Head
LeftShoulder	Spine2
LeftArm	LeftShoulder
LeftForeArm	LeftArm
LeftHand	LeftForeArm
LeftHandThumb1	LeftHand
LeftHandThumb2	LeftHandThumb1
LeftHandThumb3	LeftHandThumb2
LeftHandThumb4	LeftHandThumb3
LeftHandIndex1	LeftHand
LeftHandIndex2	LeftHandIndex1
LeftHandIndex3	LeftHandIndex2
LeftHandIndex4	LeftHandIndex3
LeftHandMiddle1	LeftHand
LeftHandMiddle2	LeftHandMiddle1
LeftHandMiddle3	LeftHandMiddle2
LeftHandMiddle4	LeftHandMiddle3
LeftHandRing1	LeftHand
LeftHandRing2	LeftHandRing1
LeftHandRing3	LeftHandRing2
LeftHandRing4	LeftHandRing3
LeftHandPinky1	LeftHand
LeftHandPinky2	LeftHandPinky1
LeftHandPinky3	LeftHandPinky2
LeftHandPinky4	LeftHandPinky3
RightShoulder	Spine2
RightArm	RightShoulder
RightForeArm	RightArm
RightHand	RightForeArm
RightHandPinky1	RightHand
RightHandPinky2	RightHandPinky1
RightHandPinky3	RightHandPinky2
RightHandPinky4	RightHandPinky3
RightHandRing1	RightHand
RightHandRing2	RightHandRing1
RightHandRing3	RightHandRing2
RightHandRing4	RightHandRing3
RightHandMiddle1	RightHand
RightHandMiddle2	RightHandMiddle1
RightHandMiddle3	RightHandMiddle2
RightHandMiddle4	RightHandMiddle3
RightHandIndex1	RightHand
RightHandIndex2	RightHandIndex1
RightHandIndex3	RightHandIndex2
RightHandIndex4	RightHandIndex3
RightHandThumb1	RightHand
RightHandThumb2	RightHandThumb1
RightHandThumb3	RightHandThumb2
RightHandThumb4	RightHandThumb3
LeftUpLeg	Hips
LeftLeg	LeftUpLeg
LeftFoot	LeftLeg
LeftToeBase	LeftFoot
RightUpLeg	Hips
RightLeg	RightUpLeg
RightFoot	RightLeg
RightToeBase	RightFoot
[BasePosition]
Hips	0	0	0	0	0	0	1
Spine	0	0	0	0	0	0	1
Spine1	0	0	0	0	0	0	1
Spine2	0	0	0	0	0	0	1
Neck	0	0	0	0	0	0	1
Head	0	0	0	0	0	0	1
LeftEye	0	0	0	0	0	0	1
RightEye	0	0	0	0	0	0	1
LeftShoulder	0	0	0	0	0	0	1
LeftArm	0	0	0	0	0	0	1
LeftForeArm	0	0	0	0	0	0	1
LeftHand	0	0	0	0	0	0	1
LeftHandThumb1	0	0	0	0	0	0	1
LeftHandThumb2	0	0	0	0	0	0	1
LeftHandThumb3	0	0	0	0	0	0	1
LeftHandThumb4	0	0	0	0	0	0	1
LeftHandIndex1	0	0	0	0	0	0	1
LeftHandIndex2	0	0	0	0	0	0	1
LeftHandIndex3	0	0	0	0	0	0	1
LeftHandIndex4	0	0	0	0	0	0	1
LeftHandMiddle1	0	0	0	0	0	0	1
LeftHandMiddle2	0	0	0	0	0	0	1
LeftHandMiddle3	0	0	0	0	0	0	1
LeftHandMiddle4	0	0	0	0	0	0	1
LeftHandRing1	0	0	0	0	0	0	1
LeftHandRing2	0	0	0	0	0	0	1
LeftHandRing3	0	0	0	0	0	0	1
LeftHandRing4	0	0	0	0	0	0	1
LeftHandPinky1	0	0	0	0	0	0	1
LeftHandPinky2	0	0	0	0	0	0	1
LeftHandPinky3	0	0	0	0	0	0	1
LeftHandPinky4	0	0	0	0	0	0	1
RightShoulder	0	0	0	0	0	0	1
RightArm	0	0	0	0	0	0	1
RightForeArm	0	0	0	0	0	0	1
RightHand	0	0	0	0	0	0	1
RightHandPinky1	0	0	0	0	0	0	1
RightHandPinky2	0	0	0	0	0	0	1
RightHandPinky3	0	0	0	0	0	0	1
RightHandPinky4	0	0	0	0	0	0	1
RightHandRing1	0	0	0	0	0	0	1
RightHandRing2	0	0	0	0	0	0	1
RightHandRing3	0	0	0	0	0	0	1
RightHandRing4	0	0	0	0	0	0	1
RightHandMiddle1	0	0	0	0	0	0	1
RightHandMiddle2	0	0	0	0	0	0	1
RightHandMiddle3	0	0	0	0	0	0	1
RightHandMiddle4	0	0	0	0	0	0	1
RightHandIndex1	0	0	0	0	0	0	1
RightHandIndex2	0	0	0	0	0	0	1
RightHandIndex3	0	0	0	0	0	0	1
RightHandIndex4	0	0	0	0	0	0	1
RightHandThumb1	0	0	0	0	0	0	1
RightHandThumb2	0	0	0	0	0	0	1
RightHandThumb3	0	0	0	0	0	0	1
RightHandThumb4	0	0	0	0	0	0	1
LeftUpLeg	0	0	0	0	0	0	1
LeftLeg	0	0	0	0	0	0	1
LeftFoot	0	0	0	0	0	0	1
LeftToeBase	0	0	0	0	0	0	1
RightUpLeg	0	0	0	0	0	0	1
RightLeg	0	0	0	0	0	0	1
RightFoot	0	0	0	0	0	0	1
RightToeBase	0	0	0	0	0	0	1
[Hips]
89	-101.2339096	847.3969116	-654.9767456	-345.4902039	38.29648209	14.62764931	1.0
90	-86.48168945	848.2705688	-571.9238892	-343.0543823	43.80987549	17.17708969	1.0
91	-69.41622162	843.9697876	-485.3857422	-339.104187	45.43876266	19.44491386	1.0
92	-53.89070129	837.3570557	-391.8527832	-337.3028564	42.38219452	18.83463287	1.0
[Spine]
89	0	101.8159943	1.315000057	1.758485079	2.028512955	0.1498349458	1.0
90	0	101.8159943	1.315000057	1.186682343	3.496340513	-0.2931260765	1.0
91	0	101.8159943	1.315000057	0.5370948315	5.135806561	-1.135076642	1.0
92	0	101.8159943	1.315000057	-0.0291519165	6.956915379	-1.97575891	1.0
[Spine1]
89	0	100.8349991	-10.00800037	3.521568537	4.543670177	-0.02981579304	1.0
90	0	100.8349991	-10.00800037	2.339377165	8.291793823	-0.7806301117	1.0
91	0	100.8349991	-10.00800037	0.9104524851	12.47897911	-2.279652596	1.0
92	0	100.8349991	-10.00800037	-0.4468454719	16.36724472	-4.074180126	1.0
[Spine2]
89	0	91	-13.73399925	3.521572351	4.543678284	-0.02981689014	1.0
90	0	91	-13.73399925	2.339381456	8.291797638	-0.780632019	1.0
91	0	91	-13.73399925	0.910449326	12.47897625	-2.279650688	1.0
92	0	91	-13.73399925	-0.4468437135	16.36725998	-4.07418108	1.0
[Neck]
89	0	166.7169952	-25.16200066	5.857005119	-2.10679245	2.539444923	1.0
90	0	166.7169952	-25.16200066	3.904886246	-3.177596569	2.389796019	1.0
91	0	166.7169952	-25.16200066	0.9780984521	-4.964683056	3.461577892	1.0
92	0	166.7169952	-25.16200066	-1.50491643	-6.855796337	5.115150928	1.0
[Head]
89	0	96.17900085	16.84999847	-33.12328339	-5.257062435	15.4990263	1.0
90	0	96.17900085	16.84999847	-36.80126572	-7.751753807	17.78069115	1.0
91	0	96.17900085	16.84999847	-43.53977203	-11.75397491	17.98253632	1.0
92	0	96.17900085	16.84999847	-50.04668427	-16.24913979	20.68671799	1.0
[LeftEye]
89	30.6760006	64.09500122	92.83599854	0	0	0	1.0
90	30.6760006	64.09500122	92.83599854	0	0	0	1.0
91	30.6760006	64.09500122	92.83599854	0	0	0	1.0
92	30.6760006	64.09500122	92.83599854	0	0	0	1.0
[RightEye]
89	-30.6760006	64.09500122	92.83499908	0	0	0	1.0
90	-30.6760006	64.09500122	92.83499908	0	0	0	1.0
91	-30.6760006	64.09500122	92.83499908	0	0	0	1.0
92	-30.6760006	64.09500122	92.83499908	0	0	0	1.0
[LeftShoulder]
89	45.70400238	109.4599991	-26.28000069	-0.4526766837	-2.494971275	7.106853008	1.0
90	45.70400238	109.4599991	-26.28000069	-0.2227383554	0.7777312398	7.738666534	1.0
91	45.70400238	109.4599991	-26.28000069	0.2175082415	5.867628574	8.374512672	1.0
92	45.70400238	109.4599991	-26.28000069	0.72137779	11.27788067	8.377285957	1.0
[LeftArm]
89	105.923996	-5.24600029	-22.32099915	11.04317093	14.19083977	-56.94223022	1.0
90	105.923996	-5.24600029	-22.32099915	21.96551895	21.46230888	-61.93136215	1.0
91	105.923996	-5.24600029	-22.32099915	22.10050392	28.62846184	-62.98402405	1.0
92	105.923996	-5.24600029	-22.32099915	9.118283272	36.57041168	-66.06462097	1.0
[LeftForeArm]
89	278.414978	-0.0009999999311	0	-544.7953491	-50.23791504	541.9926147	1.0
90	278.414978	-0.0009999999311	0	-545.4301758	-54.11827087	542.9416504	1.0
91	278.414978	-0.0009999999311	0	-547.1571045	-57.82785797	544.5216675	1.0
92	278.414978	-0.0009999999311	0	-549.1305542	-57.85094452	546.1921997	1.0
[LeftHand]
89	283.2879944	0	0	33.75894165	7.379464626	25.35375023	1.0
90	283.2879944	0	0	33.08760834	-4.420020103	21.77343941	1.0
91	283.2879944	0	0	23.72578812	-10.21371269	15.06371784	1.0
92	283.2879944	0	0	6.87485218	-2.158725739	6.812263489	1.0
[LeftHandThumb1]
89	24.6609993	-15.75	26.8239994	2.985602617	-6.2686553	16.98047447	1.0
90	24.6609993	-15.75	26.8239994	5.559470654	-5.691130161	14.74137211	1.0
91	24.6609993	-15.75	26.8239994	7.230315685	-5.383718967	13.43843555	1.0
92	24.6609993	-15.75	26.8239994	7.220711231	-5.582662106	13.72976589	1.0
[LeftHandThumb2]
89	32.29800034	-18.64699936	18.64699936	2.861341476	15.90617657	-15.14045715	1.0
90	32.29800034	-18.64699936	18.64699936	-1.288622141	26.46427917	-22.57268524	1.0
91	32.29800034	-18.64699936	18.64699936	-4.520659447	32.88766098	-28.42641068	1.0
92	32.29800034	-18.64699936	18.64699936	-4.190429211	32.20390701	-28.05187416	1.0
[LeftHandThumb3]
89	26.52600098	-15.31499958	15.31499958	3.601811159e-06	-8.438974328e-05	-6.943767221e-05	1.0
90	26.52600098	-15.31499958	15.31499958	3.601811159e-06	-8.438974328e-05	-6.943767221e-05	1.0
91	26.52600098	-15.31499958	15.31499958	3.601811159e-06	-8.438974328e-05	-6.943767221e-05	1.0
92	26.52600098	-15.31499958	15.31499958	3.601811159e-06	-8.438974328e-05	-6.943767221e-05	1.0
[LeftHandThumb4]
89	19.54599953	-11.28499985	11.28499985	0	0	0	1.0
90	19.54599953	-11.28499985	11.28499985	0	0	0	1.0
91	19.54599953	-11.28499985	11.28499985	0	0	0	1.0
92	19.54599953	-11.28499985	11.28499985	0	0	0	1.0
[LeftHandIndex1]
89	91.09299469	-5.170999527	22.60099792	-1.449751735	-3.436620474	-35.59259415	1.0
90	91.09299469	-5.170999527	22.60099792	-1.811799765	-6.550573349	-64.1098175	1.0
91	91.09299469	-5.170999527	22.60099792	-0.9240932465	-8.423478127	-82.14217377	1.0
92	91.09299469	-5.170999527	22.60099792	-1.06802702	-8.263478279	-80.3216095	1.0
[LeftHandIndex2]
89	36.76399994	0	0	-0.5364441872	-4.540510178	-55.80685043	1.0
90	36.76399994	0	0	1.838885665	-9.517043114	-97.26311493	1.0
91	36.76399994	0	0	5.325690746	-11.09401989	-123.7183685	1.0
92	36.76399994	0	0	4.928844452	-11.07012177	-121.0456009	1.0
[LeftHandIndex3]
89	28.83100128	0	0	-1.432096042e-06	3.907105395e-07	1.552835329e-06	1.0
90	28.83100128	0	0	-1.432096042e-06	3.907105395e-07	1.552835329e-06	1.0
91	28.83100128	0	0	-1.432096042e-06	3.907105395e-07	1.552835329e-06	1.0
92	28.83100128	0	0	-1.432096042e-06	3.907105395e-07	1.552835329e-06	1.0
[LeftHandIndex4]
89	23.92700005	0	0	0	0	0	1.0
90	23.92700005	0	0	0	0	0	1.0
91	23.92700005	0	0	0	0	0	1.0
92	23.92700005	0	0	0	0	0	1.0
[LeftHandMiddle1]
89	95.33399963	0	0	-1.610408425	-3.023724318	-42.03399277	1.0
90	95.33399963	0	0	-1.509893537	-6.554252148	-69.60305023	1.0
91	95.33399963	0	0	-0.4065901935	-8.587668419	-87.0432663	1.0
92	95.33399963	0	0	-0.5660667419	-8.413983345	-85.28175354	1.0
[LeftHandMiddle2]
89	36.98199844	0	0	-0.2080153078	-4.841689587	-48.67645645	1.0
90	36.98199844	0	0	1.689580321	-8.646727562	-85.53184509	1.0
91	36.98199844	0	0	4.314841747	-10.03090382	-109.5844193	1.0
92	36.98199844	0	0	4.002622128	-9.981726646	-107.082428	1.0
[LeftHandMiddle3]
89	29.50900078	0	0	0	-3.180554719e-15	-7.951386796e-16	1.0
90	29.50900078	0	0	0	-3.180554719e-15	-7.951386796e-16	1.0
91	29.50900078	0	0	0	-3.180554719e-15	-7.951386796e-16	1.0
92	29.50900078	0	0	0	-3.180554719e-15	-7.951386796e-16	1.0
[LeftHandMiddle4]
89	28.3390007	0	0	0	0	0	1.0
90	28.3390007	0	0	0	0	0	1.0
91	28.3390007	0	0	0	0	0	1.0
92	28.3390007	0	0	0	0	0	1.0
[LeftHandRing1]
89	91.04499817	-0.4390000105	-18.65100098	-2.935335636	1.46203351	-51.3984375	1.0
90	91.04499817	-0.4390000105	-18.65100098	-1.929375887	-3.212724209	-77.26571655	1.0
91	91.04499817	-0.4390000105	-18.65100098	-0.4014788568	-5.839707375	-93.4989624	1.0
92	91.04499817	-0.4390000105	-18.65100098	-0.5826694369	-5.619410515	-91.98229218	1.0
[LeftHandRing2]
89	31.54000092	0	0	3.457439184	-2.67759037	-53.69161987	1.0
90	31.54000092	0	0	6.117823124	-2.123670816	-86.5499115	1.0
91	31.54000092	0	0	7.525609016	-0.7947568893	-108.676918	1.0
92	31.54000092	0	0	7.417803764	-0.9841062427	-106.2356796	1.0
[LeftHandRing3]
89	29.37700081	0	0	1.590277359e-15	3.180554719e-15	-7.951386796e-16	1.0
90	29.37700081	0	0	1.590277359e-15	3.180554719e-15	-7.951386796e-16	1.0
91	29.37700081	0	0	1.590277359e-15	3.180554719e-15	-7.951386796e-16	1.0
92	29.37700081	0	0	1.590277359e-15	3.180554719e-15	-7.951386796e-16	1.0
[LeftHandRing4]
89	26.47500038	0	0	0	0	0	1.0
90	26.47500038	0	0	0	0	0	1.0
91	26.47500038	0	0	0	0	0	1.0
92	26.47500038	0	0	0	0	0	1.0
[LeftHandPinky1]
89	80.77799988	-4.887000084	-38.06099701	-3.508752108	4.809987068	-49.33856583	1.0
90	80.77799988	-4.887000084	-38.06099701	-2.315989494	-2.438329697	-74.99327087	1.0
91	80.77799988	-4.887000084	-38.06099701	-0.6372699738	-6.735267162	-91.30158997	1.0
92	80.77799988	-4.887000084	-38.06099701	-0.8517745137	-6.325972557	-89.56866455	1.0
[LeftHandPinky2]
89	36	0	0	7.294059753	-2.341477633	-66.48651123	1.0
90	36	0	0	9.623118401	1.228623867	-94.61038971	1.0
91	36	0	0	9.926557541	4.115980148	-112.9257278	1.0
92	36	0	0	9.965238571	3.767979622	-110.7296295	1.0
[LeftHandPinky3]
89	21.14200211	0	0	3.226109357e-06	2.925280342e-06	-5.739977951e-06	1.0
90	21.14200211	0	0	3.226109357e-06	2.925280342e-06	-5.739977951e-06	1.0
91	21.14200211	0	0	3.226109357e-06	2.925280342e-06	-5.739977951e-06	1.0
92	21.14200211	0	0	3.226109357e-06	2.925280342e-06	-5.739977951e-06	1.0
[LeftHandPinky4]
89	19.75699997	0	0	0	0	0	1.0
90	19.75699997	0	0	0	0	0	1.0
91	19.75699997	0	0	0	0	0	1.0
92	19.75699997	0	0	0	0	0	1.0
[RightShoulder]
89	-45.70000076	109.4620056	-26.28000069	1.423665762	13.26072598	-5.039947033	1.0
90	-45.70000076	109.4620056	-26.28000069	0.8030058742	12.49078083	-12.89155197	1.0
91	-45.70000076	109.4620056	-26.28000069	0.8289976716	11.28328991	-19.16406059	1.0
92	-45.70000076	109.4620056	-26.28000069	1.718967199	8.554902077	-21.85943413	1.0
[RightArm]
89	-105.9280014	-5.248000145	-22.32099915	-48.42803574	11.32916355	-9.327050209	1.0
90	-105.9280014	-5.248000145	-22.32099915	-66.36073303	10.59877968	-14.88356209	1.0
91	-105.9280014	-5.248000145	-22.32099915	-81.6619339	15.61962795	-20.43632507	1.0
92	-105.9280014	-5.248000145	-22.32099915	-98.64875031	25.54675102	-37.50456238	1.0
[RightForeArm]
89	-278.414978	0	0	-21.4919281	36.89949799	1.711110473	1.0
90	-278.414978	0	0	-15.56979465	42.19235992	2.145308018	1.0
91	-278.414978	0	0	-9.81593132	54.52005768	1.883055449	1.0
92	-278.414978	0	0	-11.15629864	64.60438538	-0.2404912263	1.0
[RightHand]
89	-283.2879944	0	0.0009999999311	-64.45756531	21.67431259	3.031960964	1.0
90	-283.2879944	0	0.0009999999311	-44.59411621	16.39371681	7.800773621	1.0
91	-283.2879944	0	0.0009999999311	-23.8170681	20.18907928	10.09299183	1.0
92	-283.2879944	0	0.0009999999311	-18.28678322	25.60271454	16.56702232	1.0
[RightHandPinky1]
89	-80.76699829	-4.885000229	-38.06000137	2.72770071	15.82683468	115.8776016	1.0
90	-80.76699829	-4.885000229	-38.06000137	1.191427708	15.0119257	111.0360184	1.0
91	-80.76699829	-4.885000229	-38.06000137	0.5684839487	14.82367802	109.4602585	1.0
92	-80.76699829	-4.885000229	-38.06000137	0.6046399474	14.88835716	108.7411194	1.0
[RightHandPinky2]
89	-36	0	0.0009999999311	15.15058804	2.079282522	96.10475159	1.0
90	-36	0	0.0009999999311	15.01704597	1.888616085	96.7441864	1.0
91	-36	0	0.0009999999311	15.13999081	1.425393224	99.21747589	1.0
92	-36	0	0.0009999999311	15.26862812	1.099624753	100.9478912	1.0
[RightHandPinky3]
89	-21.14200211	0	0	-1.590277359e-15	0	-7.951386796e-16	1.0
90	-21.14200211	0	0	-1.590277359e-15	0	-7.951386796e-16	1.0
91	-21.14200211	0	0	-1.590277359e-15	0	-7.951386796e-16	1.0
92	-21.14200211	0	0	-1.590277359e-15	0	-7.951386796e-16	1.0
[RightHandPinky4]
89	-19.75699997	0	0	0	0	0	1.0
90	-19.75699997	0	0	0	0	0	1.0
91	-19.75699997	0	0	0	0	0	1.0
92	-19.75699997	0	0	0	0	0	1.0
[RightHandRing1]
89	-91.03599548	-0.4390000105	-18.65100098	-0.6603895426	11.18413734	114.038269	1.0
90	-91.03599548	-0.4390000105	-18.65100098	-1.459055305	10.74919701	109.6339417	1.0
91	-91.03599548	-0.4390000105	-18.65100098	-1.734020352	10.6738739	108.1873932	1.0
92	-91.03599548	-0.4390000105	-18.65100098	-1.755519629	10.68995571	107.2986526	1.0
[RightHandRing2]
89	-31.54000092	0	0	8.901791573	3.490982056	90.35286713	1.0
90	-31.54000092	0	0	8.575039864	3.689284086	86.99691772	1.0
91	-31.54000092	0	0	8.632266045	3.675994635	87.64655304	1.0
92	-31.54000092	0	0	8.796539307	3.58122468	89.25989532	1.0
[RightHandRing3]
89	-29.37700081	0	0	5.740008078e-07	-7.531911024e-07	-2.69121324e-06	1.0
90	-29.37700081	0	0	5.740008078e-07	-7.531911024e-07	-2.69121324e-06	1.0
91	-29.37700081	0	0	5.740008078e-07	-7.531911024e-07	-2.69121324e-06	1.0
92	-29.37700081	0	0	5.740008078e-07	-7.531911024e-07	-2.69121324e-06	1.0
[RightHandRing4]
89	-26.47500038	0	0	0	0	0	1.0
90	-26.47500038	0	0	0	0	0	1.0
91	-26.47500038	0	0	0	0	0	1.0
92	-26.47500038	0	0	0	0	0	1.0
[RightHandMiddle1]
89	-95.32500458	0	0	0.9524739981	8.491170883	109.302536	1.0
90	-95.32500458	0	0	0.4432085156	8.129610062	104.9038773	1.0
91	-95.32500458	0	0	0.2375002652	7.912665844	103.151062	1.0
92	-95.32500458	0	0	0.07745583355	7.780947208	101.6342468	1.0
[RightHandMiddle2]
89	-36.98199844	0	0	0.3312457502	8.216362953	99.56034088	1.0
90	-36.98199844	0	0	-0.01903494634	7.917585373	95.52378082	1.0
91	-36.98199844	0	0	0.02970152907	7.908444405	95.97251892	1.0
92	-36.98199844	0	0	0.1775722355	8.062583923	97.8692627	1.0
[RightHandMiddle3]
89	-29.50900078	0	0	1.856611448e-06	-0.002022909233	1.577868488e-06	1.0
90	-29.50900078	0	0	1.856611448e-06	-0.002022909233	1.577868488e-06	1.0
91	-29.50900078	0	0	1.856611448e-06	-0.002022909233	1.577868488e-06	1.0
92	-29.50900078	0	0	1.856611448e-06	-0.002022909233	1.577868488e-06	1.0
[RightHandMiddle4]
89	-28.3390007	0	0.0009999999311	0	0	0	1.0
90	-28.3390007	0	0.0009999999311	0	0	0	1.0
91	-28.3390007	0	0.0009999999311	0	0	0	1.0
92	-28.3390007	0	0.0009999999311	0	0	0	1.0
[RightHandIndex1]
89	-91.08300018	-5.167999744	22.60099792	3.571693659	2.064589024	115.3266144	1.0
90	-91.08300018	-5.167999744	22.60099792	3.49151659	1.984977126	110.4389648	1.0
91	-91.08300018	-5.167999744	22.60099792	3.569988489	1.920474887	108.3743286	1.0
92	-91.08300018	-5.167999744	22.60099792	3.43432188	1.802556396	106.977478	1.0
[RightHandIndex2]
89	-36.76399994	0	0	-1.169142842	7.991710663	100.8131409	1.0
90	-36.76399994	0	0	-1.598262548	7.510640621	96.0164032	1.0
91	-36.76399994	0	0	-1.552310228	7.495732307	96.29338837	1.0
92	-36.76399994	0	0	-1.413364053	7.695474148	98.14022827	1.0
[RightHandIndex3]
89	-28.83100128	0	0	-3.180554719e-15	0	0	1.0
90	-28.83100128	0	0	-3.180554719e-15	0	0	1.0
91	-28.83100128	0	0	-3.180554719e-15	0	0	1.0
92	-28.83100128	0	0	-3.180554719e-15	0	0	1.0
[RightHandIndex4]
89	-23.92700005	0	0	0	0	0	1.0
90	-23.92700005	0	0	0	0	0	1.0
91	-23.92700005	0	0	0	0	0	1.0
92	-23.92700005	0	0	0	0	0	1.0
[RightHandThumb1]
89	-24.64799881	-15.72700024	26.82600021	8.628993988	15.39541912	4.67784071	1.0
90	-24.64799881	-15.72700024	26.82600021	14.32903194	23.06507492	-3.234744787	1.0
91	-24.64799881	-15.72700024	26.82600021	17.07124901	26.99061584	-6.923299313	1.0
92	-24.64799881	-15.72700024	26.82600021	17.74323273	27.87552452	-7.54912281	1.0
[RightHandThumb2]
89	-32.29800034	-18.64699936	18.64699936	-1.597515464	-36.45506287	46.08099365	1.0
90	-32.29800034	-18.64699936	18.64699936	-3.85046339	-33.36693573	58.93358994	1.0
91	-32.29800034	-18.64699936	18.64699936	-4.229894638	-32.84820938	65.37686157	1.0
92	-32.29800034	-18.64699936	18.64699936	-4.549905777	-33.21149063	67.11934662	1.0
[RightHandThumb3]
89	-26.52600098	-15.31399918	15.31399918	-3.81245151e-08	-0.00121095567	-0.001221005921	1.0
90	-26.52600098	-15.31399918	15.31399918	-3.81245151e-08	-0.00121095567	-0.001221005921	1.0
91	-26.52600098	-15.31399918	15.31399918	-3.81245151e-08	-0.00121095567	-0.001221005921	1.0
92	-26.52600098	-15.31399918	15.31399918	-3.81245151e-08	-0.00121095567	-0.001221005921	1.0
[RightHandThumb4]
89	-19.54599953	-11.28499985	11.28499985	0	0	0	1.0
90	-19.54599953	-11.28499985	11.28499985	0	0	0	1.0
91	-19.54599953	-11.28499985	11.28499985	0	0	0	1.0
92	-19.54599953	-11.28499985	11.28499985	0	0	0	1.0
[LeftUpLeg]
89	82.07800293	-67.51699829	-15.99599934	-61.67283249	1.799937129	-12.52969456	1.0
90	82.07800293	-67.51699829	-15.99599934	-61.36836243	-6.400081158	-17.19904518	1.0
91	82.07800293	-67.51699829	-15.99599934	-61.42310715	-12.32199001	-18.73676682	1.0
92	82.07800293	-67.51699829	-15.99599934	-64.49817657	-13.69520378	-16.28150177	1.0
[LeftLeg]
89	0	-443.7049866	2.845999956	61.78221512	3.332947731	-7.752112865	1.0
90	0	-443.7049866	2.845999956	50.5777359	1.025732517	-9.980501175	1.0
91	0	-443.7049866	2.845999956	42.4166832	-4.369720936	-14.17653179	1.0
92	0	-443.7049866	2.845999956	43.98437881	-7.268121243	-16.65388107	1.0
[LeftFoot]
89	0	-444.2789917	-29.8219986	-20.47554207	-0.9875419736	-2.743827581	1.0
90	0	-444.2789917	-29.8219986	-18.75704002	-4.093092918	-5.986727238	1.0
91	0	-444.2789917	-29.8219986	-18.08994484	-8.696077347	-8.883714676	1.0
92	0	-444.2789917	-29.8219986	-17.27223206	-12.23181152	-5.485446453	1.0
[LeftToeBase]
89	0	-87.28699493	107.1060028	-2.014757872	2.141059667e-05	3.176899327e-06	1.0
90	0	-87.28699493	107.1060028	-0.6687354445	1.1787728e-05	5.32865954e-07	1.0
91	0	-87.28699493	107.1060028	0.04924888909	4.003713912e-06	1.617048895e-08	1.0
92	0	-87.28699493	107.1060028	-0.3893253207	3.063168919e-08	4.933221135e-06	1.0
[RightUpLeg]
89	-82.07800293	-67.51699829	-15.99599934	6.578837395	-20.6562748	-5.379841328	1.0
90	-82.07800293	-67.51699829	-15.99599934	14.80056381	-20.80610275	-1.583806396	1.0
91	-82.07800293	-67.51699829	-15.99599934	19.46590614	-19.66051674	1.759538651	1.0
92	-82.07800293	-67.51699829	-15.99599934	23.35170555	-17.28338051	3.035071135	1.0
[RightLeg]
89	0	-443.7049866	2.861999989	46.66584015	-9.505877495	-5.760416985	1.0
90	0	-443.7049866	2.861999989	34.98763657	-12.61096573	-3.666640759	1.0
91	0	-443.7049866	2.861999989	24.64872742	-14.40602303	-1.507290602	1.0
92	0	-443.7049866	2.861999989	16.64152527	-13.42767143	0.5410721898	1.0
[RightFoot]
89	0	-444.2770081	-29.83799934	-29.96083069	-2.077669859	10.16516781	1.0
90	0	-444.2770081	-29.83799934	-21.75712967	-8.066580772	8.658226967	1.0
91	0	-444.2770081	-29.83799934	-10.06946182	-14.03052044	5.992330551	1.0
92	0	-444.2770081	-29.83799934	6.331388474	-17.79945183	1.678731918	1.0
[RightToeBase]
89	0	-87.28699493	107.1060028	-23.81778145	0.05746640265	0.1462222934	1.0
90	0	-87.28699493	107.1060028	-26.28435326	-0.01621179469	-0.03537078202	1.0
91	0	-87.28699493	107.1060028	-28.97356415	3.640504019e-06	-7.038006515e-06	1.0
92	0	-87.28699493	107.1060028	-28.29438019	0.6239387989	1.253288388	1.0
[EndOfFile]
